<svg xmlns="http://www.w3.org/2000/svg" xmlns:xlink="http://www.w3.org/1999/xlink" version="1.1" viewBox="0 0 360 360"><defs><g id="black-bishop" fill="none" fill-rule="evenodd" stroke="#000" stroke-linecap="round" stroke-linejoin="round" stroke-width="1.5" class="black bishop"><path fill="#000" stroke-linecap="butt" d="M9 36c3.39-.97 10.11.43 13.5-2 3.39 2.43 10.11 1.03 13.5 2 0 0 1.65.54 3 2-.68.97-1.65.99-3 .5-3.39-.97-10.11.46-13.5-1-3.39 1.46-10.11.03-13.5 1-1.354.49-2.323.47-3-.5 1.354-1.94 3-2 3-2zm6-4c2.5 2.5 12.5 2.5 15 0 .5-1.5 0-2 0-2 0-2.5-2.5-4-2.5-4 5.5-1.5 6-11.5-5-15.5-11 4-10.5 14-5 15.5 0 0-2.5 1.5-2.5 4 0 0-.5.5 0 2zM25 8a2.5 2.5 0 1 1-5 0 2.5 2.5 0 1 1 5 0z"/><path stroke="#fff" stroke-linejoin="miter" d="M17.5 26h10M15 30h15m-7.5-14.5v5M20 18h5"/></g><g id="black-king" fill="none" fill-rule="evenodd" stroke="#000" stroke-linecap="round" stroke-linejoin="round" stroke-width="1.5" class="black king"><path stroke-linejoin="miter" d="M22.5 11.63V6"/><path fill="#000" stroke-linecap="butt" stroke-linejoin="miter" d="M22.5 25s4.5-7.5 3-10.5c0 0-1-2.5-3-2.5s-3 2.5-3 2.5c-1.5 3 3 10.5 3 10.5"/><path fill="#000" d="M11.5 37c5.5 3.5 15.5 3.5 21 0v-7s9-4.5 6-10.5c-4-6.5-13.5-3.5-16 4V27v-3.5c-3.5-7.5-13-10.5-16-4-3 6 5 10 5 10V37z"/><path stroke-linejoin="miter" d="M20 8h5"/><path stroke="#fff" d="M32 29.5s8.5-4 6.03-9.65C34.15 14 25 18 22.5 24.5l.01 2.1-.01-2.1C20 18 9.906 14 6.997 19.85c-2.497 5.65 4.853 9 4.853 9M11.5 30c5.5-3 15.5-3 21 0m-21 3.5c5.5-3 15.5-3 21 0m-21 3.5c5.5-3 15.5-3 21 0"/></g><g id="black-knight" fill="none" fill-rule="evenodd" stroke="#000" stroke-linecap="round" stroke-linejoin="round" stroke-width="1.5" class="black knight"><path d="M 22,10 C 32.5,11 38.5,18 38,39 L 15,39 C 15,30 25,32.5 23,18" style="fill:#000;stroke:#000"/><path d="M 24,18 C 24.38,20.91 18.45,25.37 16,27 C 13,29 13.18,31.34 11,31 C 9.958,30.06 12.41,27.96 11,28 C 10,28 11.19,29.23 10,30 C 9,30 5.997,31 6,26 C 6,24 12,14 12,14 C 12,14 13.89,12.1 14,10.5 C 13.27,9.506 13.5,8.5 13.5,7.5 C 14.5,6.5 16.5,10 16.5,10 L 18.5,10 C 18.5,10 19.28,8.008 21,7 C 22,7 22,10 22,10" style="fill:#000;stroke:#000"/><path d="M 9.5 25.5 A 0.5 0.5 0 1 1 8.5,25.5 A 0.5 0.5 0 1 1 9.5 25.5 z" style="fill:#ececec;stroke:#ececec"/><path d="M 15 15.5 A 0.5 1.5 0 1 1 14,15.5 A 0.5 1.5 0 1 1 15 15.5 z" transform="matrix(0.866,0.5,-0.5,0.866,9.693,-5.173)" style="fill:#ececec;stroke:#ececec"/><path d="M 24.55,10.4 L 24.1,11.85 L 24.6,12 C 27.75,13 30.25,14.49 32.5,18.75 C 34.75,23.01 35.75,29.06 35.25,39 L 35.2,39.5 L 37.45,39.5 L 37.5,39 C 38,28.94 36.62,22.15 34.25,17.66 C 31.88,13.17 28.46,11.02 25.06,10.5 L 24.55,10.4 z" style="fill:#ececec;stroke:none"/></g><g id="black-pawn" class="black pawn"><path stroke="#000" stroke-linecap="round" stroke-width="1.5" d="M22 9c-2.21 0-4 1.79-4 4 0 .89.29 1.71.78 2.38-1.95 1.12-3.28 3.21-3.28 5.62 0 2.03.94 3.84 2.41 5.03-3 1.06-7.41 5.55-7.41 13.47h23c0-7.92-4.41-12.41-7.41-13.47 1.47-1.19 2.41-3 2.41-5.03 0-2.41-1.33-4.5-3.28-5.62.49-.67.78-1.49.78-2.38 0-2.21-1.79-4-4-4z"/></g><g id="black-queen" fill="#000" fill-rule="evenodd" stroke="#000" stroke-linecap="round" stroke-linejoin="round" stroke-width="1.5" class="black queen"><g fill="#000" stroke="none"><circle cx="6" cy="12" r="2.75"/><circle cx="14" cy="9" r="2.75"/><circle cx="22.5" cy="8" r="2.75"/><circle cx="31" cy="9" r="2.75"/><circle cx="39" cy="12" r="2.75"/></g><path stroke-linecap="butt" d="M9 26c8.5-1.5 21-1.5 27 0l2.5-12.5L31 25l-.3-14.1-5.2 13.6-3-14.5-3 14.5-5.2-13.6L14 25 6.5 13.5 9 26zM9 26c0 2 1.5 2 2.5 4 1 1.5 1 1 .5 3.5-1.5 1-1.5 2.5-1.5 2.5-1.5 1.5.5 2.5.5 2.5 6.5 1 16.5 1 23 0 0 0 1.5-1 0-2.5 0 0 .5-1.5-1-2.5-.5-2.5-.5-2 .5-3.5 1-2 2.5-2 2.5-4-8.5-1.5-18.5-1.5-27 0z"/><path fill="none" stroke-linecap="butt" d="M11 38.5a35 35 1 0 0 23 0"/><path fill="none" stroke="#fff" d="M11 29a35 35 1 0 1 23 0M12.5 31.5h20M11.5 34.5a35 35 1 0 0 22 0M10.5 37.5a35 35 1 0 0 24 0"/></g><g id="black-rook" fill="#000" fill-rule="evenodd" stroke="#000" stroke-linecap="round" stroke-linejoin="round" stroke-width="1.5" class="black rook"><path stroke-linecap="butt" d="M9 39h27v-3H9v3zM12.5 32l1.5-2.5h17l1.5 2.5h-20zM12 36v-4h21v4H12z"/><path stroke-linecap="butt" stroke-linejoin="miter" d="M14 29.5v-13h17v13H14z"/><path stroke-linecap="butt" d="M14 16.5L11 14h23l-3 2.5H14zM11 14V9h4v2h5V9h5v2h5V9h4v5H11z"/><path fill="none" stroke="#fff" stroke-linejoin="miter" stroke-width="1" d="M12 35.5h21M13 31.5h19M14 29.5h17M14 16.5h17M11 14h23"/></g><g id="white-bishop" fill="none" fill-rule="evenodd" stroke="#000" stroke-linecap="round" stroke-linejoin="round" stroke-width="1.5" class="white bishop"><g fill="#fff" stroke-linecap="butt"><path d="M9 36c3.39-.97 10.11.43 13.5-2 3.39 2.43 10.11 1.03 13.5 2 0 0 1.65.54 3 2-.68.97-1.65.99-3 .5-3.39-.97-10.11.46-13.5-1-3.39 1.46-10.11.03-13.5 1-1.354.49-2.323.47-3-.5 1.354-1.94 3-2 3-2zM15 32c2.5 2.5 12.5 2.5 15 0 .5-1.5 0-2 0-2 0-2.5-2.5-4-2.5-4 5.5-1.5 6-11.5-5-15.5-11 4-10.5 14-5 15.5 0 0-2.5 1.5-2.5 4 0 0-.5.5 0 2zM25 8a2.5 2.5 0 1 1-5 0 2.5 2.5 0 1 1 5 0z"/></g><path stroke-linejoin="miter" d="M17.5 26h10M15 30h15m-7.5-14.5v5M20 18h5"/></g><g id="white-king" fill="none" fill-rule="evenodd" stroke="#000" stroke-linecap="round" stroke-linejoin="round" stroke-width="1.5" class="white king"><path stroke-linejoin="miter" d="M22.5 11.63V6M20 8h5"/><path fill="#fff" stroke-linecap="butt" stroke-linejoin="miter" d="M22.5 25s4.5-7.5 3-10.5c0 0-1-2.5-3-2.5s-3 2.5-3 2.5c-1.5 3 3 10.5 3 10.5"/><path fill="#fff" d="M11.5 37c5.5 3.5 15.5 3.5 21 0v-7s9-4.5 6-10.5c-4-6.5-13.5-3.5-16 4V27v-3.5c-3.5-7.5-13-10.5-16-4-3 6 5 10 5 10V37z"/><path d="M11.5 30c5.5-3 15.5-3 21 0m-21 3.5c5.5-3 15.5-3 21 0m-21 3.5c5.5-3 15.5-3 21 0"/></g><g id="white-knight" fill="none" fill-rule="evenodd" stroke="#000" stroke-linecap="round" stroke-linejoin="round" stroke-width="1.5" class="white knight"><path d="M 22,10 C 32.5,11 38.5,18 38,39 L 15,39 C 15,30 25,32.5 23,18" style="fill:#fff;stroke:#000"/><path d="M 24,18 C 24.38,20.91 18.45,25.37 16,27 C 13,29 13.18,31.34 11,31 C 9.958,30.06 12.41,27.96 11,28 C 10,28 11.19,29.23 10,30 C 9,30 5.997,31 6,26 C 6,24 12,14 12,14 C 12,14 13.89,12.1 14,10.5 C 13.27,9.506 13.5,8.5 13.5,7.5 C 14.5,6.5 16.5,10 16.5,10 L 18.5,10 C 18.5,10 19.28,8.008 21,7 C 22,7 22,10 22,10" style="fill:#fff;stroke:#000"/><path d="M 9.5 25.5 A 0.5 0.5 0 1 1 8.5,25.5 A 0.5 0.5 0 1 1 9.5 25.5 z" style="fill:#000;stroke:#000"/><path d="M 15 15.5 A 0.5 1.5 0 1 1 14,15.5 A 0.5 1.5 0 1 1 15 15.5 z" transform="matrix(0.866,0.5,-0.5,0.866,9.693,-5.173)" style="fill:#000;stroke:#000"/></g><g id="white-pawn" class="white pawn"><path fill="#fff" stroke="#000" stroke-linecap="round" stroke-width="1.5" d="M22 9c-2.21 0-4 1.79-4 4 0 .89.29 1.71.78 2.38-1.95 1.12-3.28 3.21-3.28 5.62 0 2.03.94 3.84 2.41 5.03-3 1.06-7.41 5.55-7.41 13.47h23c0-7.92-4.41-12.41-7.41-13.47 1.47-1.19 2.41-3 2.41-5.03 0-2.41-1.33-4.5-3.28-5.62.49-.67.78-1.49.78-2.38 0-2.21-1.79-4-4-4z"/></g><g id="white-queen" fill="#fff" fill-rule="evenodd" stroke="#000" stroke-linecap="round" stroke-linejoin="round" stroke-width="1.5" class="white queen"><path d="M8 12a2 2 0 1 1-4 0 2 2 0 1 1 4 0zM24.5 7.5a2 2 0 1 1-4 0 2 2 0 1 1 4 0zM41 12a2 2 0 1 1-4 0 2 2 0 1 1 4 0zM16 8.5a2 2 0 1 1-4 0 2 2 0 1 1 4 0zM33 9a2 2 0 1 1-4 0 2 2 0 1 1 4 0z"/><path stroke-linecap="butt" d="M9 26c8.5-1.5 21-1.5 27 0l2-12-7 11V11l-5.5 13.5-3-15-3 15-5.5-14V25L7 14l2 12zM9 26c0 2 1.5 2 2.5 4 1 1.5 1 1 .5 3.5-1.5 1-1.5 2.5-1.5 2.5-1.5 1.5.5 2.5.5 2.5 6.5 1 16.5 1 23 0 0 0 1.5-1 0-2.5 0 0 .5-1.5-1-2.5-.5-2.5-.5-2 .5-3.5 1-2 2.5-2 2.5-4-8.5-1.5-18.5-1.5-27 0z"/><path fill="none" d="M11.5 30c3.5-1 18.5-1 22 0M12 33.5c6-1 15-1 21 0"/></g><g id="white-rook" fill="#fff" fill-rule="evenodd" stroke="#000" stroke-linecap="round" stroke-linejoin="round" stroke-width="1.5" class="white rook"><path stroke-linecap="butt" d="M9 39h27v-3H9v3zM12 36v-4h21v4H12zM11 14V9h4v2h5V9h5v2h5V9h4v5"/><path d="M34 14l-3 3H14l-3-3"/><path stroke-linecap="butt" stroke-linejoin="miter" d="M31 17v12.5H14V17"/><path d="M31 29.5l1.5 2.5h-20l1.5-2.5"/><path fill="none" stroke-linejoin="miter" d="M11 14h23"/></g><radialGradient id="check_gradient"><stop offset="0%" stop-color="red" stop-opacity="1"/><stop offset="50%" stop-color="#e70000" stop-opacity="1"/><stop offset="100%" stop-color="#9e0000" stop-opacity="0"/></radialGradient></defs><rect width="30" height="45" x="180" y="0" fill="#262421" stroke="none"/><rect width="30" height="45" x="210" y="0" fill="#bababa" stroke="none"/><rect width="30" height="45" x="240" y="0" fill="#bf811d" stroke="none"/><rect width="30" height="45" x="270" y="0" fill="#b72fc6" stroke="none"/><rect width="30" height="45" x="300" y="0" fill="#706f6e" stroke="none"/><rect width="45" height="360" x="0" y="0" fill="#f0d9b5" stroke="none"/><use transform="translate(0, 45)" xlink:href="#black-pawn"/><use transform="translate(0, 90)" xlink:href="#black-knight"/><use transform="translate(0, 135)" xlink:href="#black-bishop"/><use transform="translate(0, 180)" xlink:href="#black-rook"/><use transform="translate(0, 225)" xlink:href="#black-queen"/><use transform="translate(0, 270)" xlink:href="#black-king"/><rect width="45" height="45" x="0" y="315" fill="url(#check_gradient)"/><use transform="translate(0, 315)" xlink:href="#black-king"/><rect width="45" height="360" x="45" y="0" fill="#b58863" stroke="none"/><use transform="translate(45, 45)" xlink:href="#black-pawn"/><use transform="translate(45, 90)" xlink:href="#black-knight"/><use transform="translate(45, 135)" xlink:href="#black-bishop"/><use transform="translate(45, 180)" xlink:href="#black-rook"/><use transform="translate(45, 225)" xlink:href="#black-queen"/><use transform="translate(45, 270)" xlink:href="#black-king"/><rect width="45" height="45" x="45" y="315" fill="url(#check_gradient)"/><use transform="translate(45, 315)" xlink:href="#black-king"/><rect width="45" height="360" x="90" y="0" fill="#ced26b" stroke="none"/><use transform="translate(90, 45)" xlink:href="#black-pawn"/><use transform="translate(90, 90)" xlink:href="#black-knight"/><use transform="translate(90, 135)" xlink:href="#black-bishop"/><use transform="translate(90, 180)" xlink:href="#black-rook"/><use transform="translate(90, 225)" xlink:href="#black-queen"/><use transform="translate(90, 270)" xlink:href="#black-king"/><rect width="45" height="45" x="90" y="315" fill="url(#check_gradient)"/><use transform="translate(90, 315)" xlink:href="#black-king"/><rect width="45" height="360" x="135" y="0" fill="#aaa23b" stroke="none"/><use transform="translate(135, 45)" xlink:href="#black-pawn"/><use transform="translate(135, 90)" xlink:href="#black-knight"/><use transform="translate(135, 135)" xlink:href="#black-bishop"/><use transform="translate(135, 180)" xlink:href="#black-rook"/><use transform="translate(135, 225)" xlink:href="#black-queen"/><use transform="translate(135, 270)" xlink:href="#black-king"/><rect width="45" height="45" x="135" y="315" fill="url(#check_gradient)"/><use transform="translate(135, 315)" xlink:href="#black-king"/><rect width="45" height="315" x="180" y="45" fill="#f0d9b5" stroke="none"/><use transform="translate(180, 45)" xlink:href="#white-pawn"/><use transform="translate(180, 90)" xlink:href="#white-knight"/><use transform="translate(180, 135)" xlink:href="#white-bishop"/><use transform="translate(180, 180)" xlink:href="#white-rook"/><use transform="translate(180, 225)" xlink:href="#white-queen"/><use transform="translate(180, 270)" xlink:href="#white-king"/><rect width="45" height="45" x="180" y="315" fill="url(#check_gradient)"/><use transform="translate(180, 315)" xlink:href="#white-king"/><rect width="45" height="315" x="225" y="45" fill="#b58863" stroke="none"/><use transform="translate(225, 45)" xlink:href="#white-pawn"/><use transform="translate(225, 90)" xlink:href="#white-knight"/><use transform="translate(225, 135)" xlink:href="#white-bishop"/><use transform="translate(225, 180)" xlink:href="#white-rook"/><use transform="translate(225, 225)" xlink:href="#white-queen"/><use transform="translate(225, 270)" xlink:href="#white-king"/><rect width="45" height="45" x="225" y="315" fill="url(#check_gradient)"/><use transform="translate(225, 315)" xlink:href="#white-king"/><rect width="45" height="315" x="270" y="45" fill="#ced26b" stroke="none"/><use transform="translate(270, 45)" xlink:href="#white-pawn"/><use transform="translate(270, 90)" xlink:href="#white-knight"/><use transform="translate(270, 135)" xlink:href="#white-bishop"/><use transform="translate(270, 180)" xlink:href="#white-rook"/><use transform="translate(270, 225)" xlink:href="#white-queen"/><use transform="translate(270, 270)" xlink:href="#white-king"/><rect width="45" height="45" x="270" y="315" fill="url(#check_gradient)"/><use transform="translate(270, 315)" xlink:href="#white-king"/><rect width="45" height="315" x="315" y="45" fill="#aaa23b" stroke="none"/><use transform="translate(315, 45)" xlink:href="#white-pawn"/><use transform="translate(315, 90)" xlink:href="#white-knight"/><use transform="translate(315, 135)" xlink:href="#white-bishop"/><use transform="translate(315, 180)" xlink:href="#white-rook"/><use transform="translate(315, 225)" xlink:href="#white-queen"/><use transform="translate(315, 270)" xlink:href="#white-king"/><rect width="45" height="45" x="315" y="315" fill="url(#check_gradient)"/><use transform="translate(315, 315)" xlink:href="#white-king"/></svg>